<svg xmlns="http://www.w3.org/2000/svg"  viewBox="0 0 100 100" width="100px" height="100px"><circle cx="52" cy="52" r="44" opacity=".35"/><circle cx="50" cy="50" r="44" fill="#f2f2f2"/><path fill="#f2f2f2" d="M67.968,50c0,9.92-8.048,17.968-17.968,17.968S32.032,59.92,32.032,50S40.08,32.032,50,32.032 S67.968,40.08,67.968,50z"/><path fill="#96c362" d="M63.171,59.361L48.509,85.9C29.355,85.128,14.064,69.334,14.064,50 c0-19.837,16.099-35.936,35.936-35.936v19.765c-8.93,0-16.171,7.241-16.171,16.171S41.07,66.171,50,66.171 C55.444,66.171,60.242,63.494,63.171,59.361z"/><path fill="#ffc571" d="M85.936,50c0,19.855-16.081,35.936-35.936,35.936h-1.509l14.68-26.575 c1.887-2.641,3.001-5.876,3.001-9.361c0-8.93-7.241-16.171-16.171-16.171V14.064c14.033,0,26.144,8.05,32.073,19.765 C84.517,38.698,85.936,44.178,85.936,50z"/><path fill="#ff7575" d="M82.055,33.829H50c-8.93,0-16.171,7.241-16.171,16.171c0,2.677,0.647,5.193,1.815,7.421h-0.018 L19.742,30.702h-0.036C26.067,20.694,37.261,14.064,50,14.064C64.015,14.064,76.144,22.114,82.055,33.829z"/><path fill="#70bfff" d="M62.578,50c0,6.948-5.629,12.578-12.578,12.578S37.422,56.948,37.422,50S43.052,37.422,50,37.422 S62.578,43.052,62.578,50z"/><path fill="#40396e" d="M50,89c-21.505,0-39-17.495-39-39s17.495-39,39-39s39,17.495,39,39S71.505,89,50,89z M50,14 c-19.851,0-36,16.149-36,36s16.149,36,36,36s36-16.149,36-36S69.851,14,50,14z"/></svg>